<svg width="16" height="16" viewBox="0 0 16 16" xmlns="http://www.w3.org/2000/svg" id="dots">
<path d="M7.0625 11.0625C7.33333 10.7917 7.64583 10.6562 8 10.6562C8.35417 10.6562 8.66667 10.7917 8.9375 11.0625C9.20833 11.3333 9.34375 11.6458 9.34375 12C9.34375 12.3542 9.20833 12.6667 8.9375 12.9375C8.66667 13.2083 8.35417 13.3438 8 13.3438C7.64583 13.3438 7.33333 13.2083 7.0625 12.9375C6.79167 12.6667 6.65625 12.3542 6.65625 12C6.65625 11.6458 6.79167 11.3333 7.0625 11.0625ZM7.0625 7.0625C7.33333 6.79167 7.64583 6.65625 8 6.65625C8.35417 6.65625 8.66667 6.79167 8.9375 7.0625C9.20833 7.33333 9.34375 7.64583 9.34375 8C9.34375 8.35417 9.20833 8.66667 8.9375 8.9375C8.66667 9.20833 8.35417 9.34375 8 9.34375C7.64583 9.34375 7.33333 9.20833 7.0625 8.9375C6.79167 8.66667 6.65625 8.35417 6.65625 8C6.65625 7.64583 6.79167 7.33333 7.0625 7.0625ZM8.9375 4.9375C8.66667 5.20833 8.35417 5.34375 8 5.34375C7.64583 5.34375 7.33333 5.20833 7.0625 4.9375C6.79167 4.66667 6.65625 4.35417 6.65625 4C6.65625 3.64583 6.79167 3.33333 7.0625 3.0625C7.33333 2.79167 7.64583 2.65625 8 2.65625C8.35417 2.65625 8.66667 2.79167 8.9375 3.0625C9.20833 3.33333 9.34375 3.64583 9.34375 4C9.34375 4.35417 9.20833 4.66667 8.9375 4.9375Z" fill="currentColor"/>
</svg>
